<?xml version="1.0" standalone="no"?>
<!DOCTYPE svg PUBLIC "-//W3C//DTD SVG 20010904//EN"
 "http://www.w3.org/TR/2001/REC-SVG-20010904/DTD/svg10.dtd">
<svg version="1.0" xmlns="http://www.w3.org/2000/svg"
 width="100.000000pt" height="100.000000pt" viewBox="0 0 100.000000 100.000000"
 preserveAspectRatio="xMidYMid meet">
<metadata>
Created by potrace 1.11, written by Peter Selinger 2001-2013
</metadata>
<g transform="translate(0.000000,100.000000) scale(0.100000,-0.100000)"
fill="#000000" stroke="none">
<path d="M477 865 c-21 -15 -22 -48 -2 -65 25 -21 67 3 63 37 -4 31 -36 46
-61 28z"/>
<path d="M86 819 c-2 -8 -4 -171 -3 -364 l2 -350 60 0 60 0 3 38 c3 39 9 42
57 29 38 -11 91 3 100 26 6 16 14 72 19 135 2 20 11 32 37 45 18 9 35 24 37
33 2 9 -13 43 -32 75 -19 32 -40 81 -46 107 -23 105 -64 163 -140 202 -59 30
-148 44 -154 24z"/>
<path d="M340 811 c-19 -36 14 -70 53 -55 21 8 26 24 16 52 -11 28 -54 30 -69
3z"/>
<path d="M591 816 c-8 -9 -8 -21 -1 -40 14 -38 58 -34 73 8 14 38 -45 64 -72
32z"/>
<path d="M825 820 c-113 -29 -170 -90 -201 -211 -8 -35 -31 -91 -50 -123 -19
-32 -34 -66 -32 -75 2 -8 17 -22 33 -31 40 -20 42 -23 44 -86 2 -58 15 -104
34 -116 18 -11 95 -10 118 2 17 10 19 7 19 -34 l0 -44 64 1 63 2 -1 360 -1
360 -30 2 c-16 1 -43 -2 -60 -7z"/>
</g>
</svg>
